<svg width="129" height="288" viewBox="0 0 129 288" fill="none" xmlns="http://www.w3.org/2000/svg">
<path d="M129 64.5C129 72.9703 127.332 81.3576 124.09 89.1831C120.849 97.0086 116.098 104.119 110.108 110.108C104.119 116.098 97.0086 120.849 89.1831 124.09C81.3576 127.332 72.9703 129 64.5 129C56.0297 129 47.6424 127.332 39.8169 124.09C31.9914 120.849 24.881 116.098 18.8916 110.108C12.9022 104.119 8.1512 97.0086 4.90977 89.1831C1.66834 81.3576 -7.40494e-07 72.9703 0 64.5L64.5 64.5H129Z" fill="#C29953"/>
<path d="M129 144.5C129 152.97 127.332 161.358 124.09 169.183C120.849 177.009 116.098 184.119 110.108 190.108C104.119 196.098 97.0086 200.849 89.1831 204.09C81.3576 207.332 72.9703 209 64.5 209C56.0297 209 47.6424 207.332 39.8169 204.09C31.9914 200.849 24.881 196.098 18.8916 190.108C12.9022 184.119 8.1512 177.009 4.90977 169.183C1.66834 161.358 -7.40494e-07 152.97 0 144.5L64.5 144.5H129Z" fill="#E6B562"/>
<path d="M129 223.5C129 231.97 127.332 240.358 124.09 248.183C120.849 256.009 116.098 263.119 110.108 269.108C104.119 275.098 97.0086 279.849 89.1831 283.09C81.3576 286.332 72.9703 288 64.5 288C56.0297 288 47.6424 286.332 39.8169 283.09C31.9914 279.849 24.881 275.098 18.8916 269.108C12.9022 263.119 8.1512 256.009 4.90977 248.183C1.66834 240.358 -7.40494e-07 231.97 0 223.5L64.5 223.5H129Z" fill="#E6B562"/>
</svg>
