<svg width="333" height="206" viewBox="0 0 333 206" fill="none" xmlns="http://www.w3.org/2000/svg">
<circle cx="247.674" cy="81.5" r="81.5" fill="#B35A3B"/>
<rect x="3.52118" y="136.713" width="331.131" height="29" rx="10" transform="rotate(6.97405 3.52118 136.713)" fill="#C29953"/>
<path d="M135.502 73.8397C137.243 72.4796 137.551 69.9659 136.191 68.225L114.027 39.8566C112.667 38.1158 110.154 37.8072 108.413 39.1672C106.672 40.5273 106.363 43.0411 107.723 44.7819L127.425 69.9983L102.208 89.6994C100.467 91.0595 100.159 93.5733 101.519 95.3141C102.879 97.055 105.393 97.3636 107.133 96.0035L135.502 73.8397ZM15.4733 60.2824L132.552 74.6579L133.527 66.7175L16.4483 52.3421L15.4733 60.2824Z" fill="white"/>
</svg>
